<?xml version="1.0" encoding="utf-8"?>
<!-- Generator: Adobe Illustrator 24.3.0, SVG Export Plug-In . SVG Version: 6.00 Build 0)  -->
<svg version="1.2" baseProfile="tiny" id="g-factories-_1-toyota-img"
	 xmlns="http://www.w3.org/2000/svg" xmlns:xlink="http://www.w3.org/1999/xlink" x="0px" y="0px" viewBox="0 0 841.68 595.199"
	 overflow="visible" xml:space="preserve">
<g>
	<polygon fill="#D90429" points="488.674,250.676 485.426,250.676 484.135,255.299 488.674,254.008 	"/>
	<polygon fill="#D90429" points="482.179,250.676 482.179,254.008 485.426,255.299 485.426,250.676 	"/>
	<polygon fill="#D90429" points="513.823,256.007 505.44,259.355 505.44,256.007 498.001,258.978 496.709,265.548 498.001,272.412 
		513.823,272.412 	"/>
	<polygon fill="#D90429" points="497.057,259.355 497.057,256.007 488.674,259.355 488.674,254.008 482.179,254.008 
		482.179,272.412 498.001,272.412 498.001,258.978 	"/>
	<polygon fill="#D90429" points="493.234,263.639 490.954,263.639 489.662,265.919 490.954,268.199 493.234,268.199 	"/>
	<rect x="488.674" y="263.639" fill="#D90429" width="2.28" height="4.561"/>
	<polygon fill="#D90429" points="501.617,263.639 499.337,263.639 498.045,265.919 499.337,268.199 501.617,268.199 	"/>
	<rect x="497.057" y="263.639" fill="#D90429" width="2.28" height="4.561"/>
	<polygon fill="#D90429" points="510,263.639 507.72,263.639 506.428,265.919 507.72,268.199 510,268.199 	"/>
	<rect x="505.44" y="263.639" fill="#D90429" width="2.28" height="4.561"/>
</g>
<style>
#g-factories-_1-toyota-img rect, #g-factories-_1-toyota-img circle, #g-factories-_1-toyota-img path, #g-factories-_1-toyota-img line, #g-factories-_1-toyota-img polyline, #g-factories-_1-toyota-img polygon { vector-effect: non-scaling-stroke; }
</style>
</svg>

