<?xml version="1.0" encoding="utf-8"?>
<!-- Generator: Adobe Illustrator 24.3.0, SVG Export Plug-In . SVG Version: 6.00 Build 0)  -->
<svg version="1.2" baseProfile="tiny" id="g-factories-_1-tesla-img"
	 xmlns="http://www.w3.org/2000/svg" xmlns:xlink="http://www.w3.org/1999/xlink" x="0px" y="0px" viewBox="0 0 841.68 595.199"
	 overflow="visible" xml:space="preserve">
<g>
	<polygon fill="#D90429" points="350.928,307.835 347.681,307.835 346.389,312.458 350.928,311.166 	"/>
	<polygon fill="#D90429" points="344.434,307.835 344.434,311.166 347.681,312.458 347.681,307.835 	"/>
	<polygon fill="#D90429" points="376.078,313.165 367.694,316.513 367.694,313.165 360.256,316.136 358.964,322.707 
		360.256,329.571 376.078,329.571 	"/>
	<polygon fill="#D90429" points="359.311,316.513 359.311,313.165 350.928,316.513 350.928,311.166 344.434,311.166 
		344.434,329.571 360.256,329.571 360.256,316.136 	"/>
	<polygon fill="#D90429" points="355.489,320.797 353.209,320.797 351.917,323.077 353.209,325.358 355.489,325.358 	"/>
	<rect x="350.928" y="320.797" fill="#D90429" width="2.28" height="4.561"/>
	<polygon fill="#D90429" points="363.872,320.797 361.592,320.797 360.3,323.077 361.592,325.358 363.872,325.358 	"/>
	<rect x="359.311" y="320.797" fill="#D90429" width="2.28" height="4.561"/>
	<polygon fill="#D90429" points="372.255,320.797 369.975,320.797 368.683,323.077 369.975,325.358 372.255,325.358 	"/>
	<rect x="367.694" y="320.797" fill="#D90429" width="2.28" height="4.561"/>
</g>
<style>
#g-factories-_1-tesla-img rect, #g-factories-_1-tesla-img circle, #g-factories-_1-tesla-img path, #g-factories-_1-tesla-img line, #g-factories-_1-tesla-img polyline, #g-factories-_1-tesla-img polygon { vector-effect: non-scaling-stroke; }
</style>
</svg>

